<svg width="24" height="24" viewBox="0 0 24 24" fill="none" xmlns="http://www.w3.org/2000/svg">
<path d="M10.8703 16.71L3.67627 8.487C2.82727 7.5195 3.51727 6 4.80577 6H19.1938C19.4821 5.99975 19.7645 6.08263 20.0069 6.23871C20.2494 6.39479 20.4418 6.61746 20.5609 6.88004C20.6801 7.14262 20.7211 7.434 20.6789 7.71927C20.6368 8.00454 20.5133 8.27161 20.3233 8.4885L13.1293 16.7085C12.9885 16.8696 12.8149 16.9987 12.62 17.0872C12.4252 17.1757 12.2137 17.2215 11.9998 17.2215C11.7858 17.2215 11.5743 17.1757 11.3795 17.0872C11.1847 16.9987 11.0111 16.8696 10.8703 16.7085V16.71Z" fill="#445769"/>
</svg>
