<svg width="24" height="24" viewBox="0 0 24 24" fill="none" xmlns="http://www.w3.org/2000/svg">
<path d="M16.1104 2.00594C16.6592 2.06693 17.0551 2.56157 16.9941 3.11044L16.4512 8.00008H20C20.5523 8.00008 21 8.4478 21 9.00008C21 9.55237 20.5523 10.0001 20 10.0001H16.2285L15.7842 14.0001H20C20.5523 14.0001 21 14.4478 21 15.0001C21 15.5524 20.5523 16.0001 20 16.0001H15.5615L14.9941 21.1104C14.9332 21.6593 14.4385 22.0552 13.8896 21.9942C13.3408 21.9332 12.9449 21.4386 13.0059 20.8897L13.5488 16.0001H9.56152L8.99414 21.1104C8.93316 21.6593 8.43851 22.0552 7.88965 21.9942C7.34078 21.9332 6.94493 21.4386 7.00586 20.8897L7.54883 16.0001H4C3.44772 16.0001 3 15.5524 3 15.0001C3 14.4478 3.44772 14.0001 4 14.0001H7.77148L8.21582 10.0001H4C3.44772 10.0001 3 9.55237 3 9.00008C3 8.4478 3.44772 8.00008 4 8.00008H8.43848L9.00586 2.88973C9.06684 2.34086 9.56149 1.94502 10.1104 2.00594C10.6592 2.06693 11.0551 2.56157 10.9941 3.11044L10.4512 8.00008H14.4385L15.0059 2.88973C15.0668 2.34086 15.5615 1.94502 16.1104 2.00594ZM9.78418 14.0001H13.7715L14.2158 10.0001H10.2285L9.78418 14.0001Z" fill="#445769"/>
</svg>
