<svg width="24" height="24" viewBox="0 0 24 24" fill="none" xmlns="http://www.w3.org/2000/svg">
<path d="M19.7824 1.05659C21.6671 0.664867 23.3352 2.33302 22.9435 4.21772L22.0422 8.55366C21.7372 10.0209 21.0104 11.3667 19.9504 12.4257L17.4347 14.9404L17.4084 17.9951C17.4038 18.5521 17.1788 19.0821 16.7883 19.4726L13.7179 22.5439L13.716 22.5449C12.8545 23.4032 11.3815 22.9882 11.1008 21.7998L10.3996 18.831C9.3223 18.9134 8.25548 18.6358 7.3615 18.0517L6.14763 19.2666C5.75709 19.6569 5.12404 19.657 4.73357 19.2666C4.34309 18.8761 4.3432 18.243 4.73357 17.8525L5.94743 16.6376C5.36335 15.7432 5.08499 14.6762 5.16716 13.5986L2.20036 12.8984C1.01196 12.6177 0.596962 11.1446 1.45524 10.2832L1.45622 10.2812L4.52751 7.20991C4.91801 6.81955 5.44817 6.59534 6.00505 6.59077L9.05876 6.56342L11.5744 4.04975C12.6334 2.98968 13.9792 2.26294 15.4465 1.95796L19.7824 1.05659ZM15.4181 16.8359C14.4987 17.5416 13.4638 18.0817 12.3595 18.4296L12.8644 20.5673L15.3742 18.0585C15.396 18.0368 15.4081 18.0076 15.4084 17.9785V17.9775L15.4181 16.8359ZM13.8 4.79389C13.5679 4.95281 13.3451 5.12641 13.1379 5.31928L12.9884 5.46381L9.43083 9.02046C8.22601 10.2253 7.4421 11.7879 7.1945 13.4746L7.19353 13.4785L7.18083 13.5537L7.18181 13.5546C7.10089 14.1115 7.18578 14.6714 7.41423 15.1699L12.6174 9.96772C13.0079 9.5772 13.6419 9.5772 14.0324 9.96772C14.4229 10.3582 14.4229 10.9922 14.0324 11.3828L8.82829 16.5849C9.32569 16.8131 9.88463 16.8978 10.4406 16.8173L10.5217 16.8056L10.5265 16.8046C12.2122 16.5581 13.7746 15.7733 14.9797 14.5683L18.5363 11.0117L18.6808 10.8623C18.8738 10.6549 19.0463 10.4314 19.2052 10.1992C17.7047 8.12112 15.8781 6.29436 13.8 4.79389ZM6.02263 8.59077H6.02165C5.99256 8.59099 5.96335 8.60317 5.94157 8.62495L3.43083 11.1337L5.5695 11.6386C5.9177 10.5347 6.45747 9.49945 7.16325 8.58003L6.02263 8.59077ZM20.9845 3.81049C21.0832 3.3358 20.6643 2.91696 20.1896 3.01557L15.9299 3.89936C17.4732 5.12638 18.8727 6.52604 20.0998 8.06928L20.9845 3.81049Z" fill="#445769"/>
</svg>
