<svg width="24" height="24" viewBox="0 0 24 24" fill="none" xmlns="http://www.w3.org/2000/svg">
<g clip-path="url(#clip0_2799_48019)">
<path d="M14.5254 2.35041C15.5742 1.95012 16.7206 1.88168 17.8096 2.15412C18.6746 2.37056 19.47 2.79415 20.1299 3.38362C20.9428 3.08504 21.7149 2.68353 22.4239 2.18342C22.7645 1.94317 23.218 1.93914 23.5626 2.17366C23.9071 2.40822 24.0704 2.83213 23.9717 3.23713C23.6292 4.64344 22.941 5.93831 21.9756 7.00959C21.9906 7.17152 21.9995 7.33411 22.0001 7.4969V7.49983C22.0001 13.5998 19.0631 18.0749 14.8448 20.3201C10.6509 22.5524 5.29121 22.5274 0.514705 19.8739C0.109956 19.649 -0.0877644 19.1761 0.0371655 18.7303C0.162214 18.2844 0.577374 17.9824 1.0401 18.0008C2.72675 18.0678 4.39588 17.7315 5.91412 17.0321C4.41146 16.1046 3.32941 15.0039 2.5772 13.8162C1.57366 12.2316 1.19458 10.5531 1.12603 9.04573C1.05771 7.5426 1.29691 6.18911 1.54791 5.21858C1.67401 4.73099 1.80447 4.33349 1.90533 4.05452C1.9558 3.91492 1.99881 3.8042 2.03033 3.72639C2.04606 3.68756 2.05897 3.65681 2.06842 3.63459L2.08404 3.59944C2.08448 3.59844 2.08467 3.5973 2.08502 3.59651L2.08599 3.59455C2.08811 3.59491 2.1288 3.61261 2.99127 3.99592L2.08599 3.59358C2.23235 3.2645 2.5449 3.0396 2.90338 3.00471C3.26187 2.96989 3.61141 3.13084 3.81842 3.42561C4.73395 4.72923 5.958 5.78656 7.38092 6.50276C8.51273 7.07238 9.7428 7.41123 11.0001 7.50569C10.9928 6.39644 11.3221 5.31071 11.9454 4.39241C12.5759 3.46364 13.4767 2.75073 14.5254 2.35041ZM17.3243 4.09455C16.6327 3.92151 15.9044 3.96437 15.2383 4.21858C14.5725 4.47279 14.001 4.92577 13.6006 5.51545C13.2003 6.1052 12.9906 6.8037 13.0001 7.51643V8.5301C13.0001 9.07214 12.5682 9.51582 12.0264 9.5301C10.1042 9.57994 8.19906 9.15338 6.4815 8.28889C5.33545 7.71204 4.2972 6.9512 3.40435 6.04182C3.22048 6.84345 3.07435 7.86076 3.12408 8.95491C3.18058 10.1972 3.48923 11.5183 4.26666 12.7459C5.04025 13.9674 6.31621 15.1578 8.40631 16.0867C8.73791 16.2342 8.9638 16.5495 8.99615 16.911C9.02845 17.2726 8.862 17.624 8.56158 17.828C7.45131 18.5816 6.23523 19.1476 4.96197 19.5145C8.13168 20.3217 11.3076 19.9372 13.9053 18.5545C17.4361 16.6751 19.9989 12.9017 20.0001 7.50373L19.9961 7.34065C19.9881 7.17873 19.968 7.01759 19.9376 6.85823C19.8749 6.53037 19.9802 6.19222 20.2178 5.95784C20.4415 5.73728 20.6476 5.50147 20.837 5.25373C20.6097 5.33762 20.3809 5.41812 20.1485 5.48811C19.7719 5.6015 19.3636 5.48313 19.1055 5.18635C18.6377 4.64844 18.0158 4.2676 17.3243 4.09455Z" fill="#445769"/>
</g>
<defs>
<clipPath id="clip0_2799_48019">
<rect width="24" height="24" fill="white"/>
</clipPath>
</defs>
</svg>
