<svg width="24" height="24" viewBox="0 0 24 24" fill="none" xmlns="http://www.w3.org/2000/svg">
<path d="M20 12.9998C19.9999 12.4476 19.5522 11.9998 19 11.9998H5C4.44777 11.9998 4.00008 12.4476 4 12.9998V19.9998L4.00488 20.1024C4.05614 20.6066 4.48227 20.9998 5 20.9998H19C19.5523 20.9998 20 20.5521 20 19.9998V12.9998ZM22 19.9998C22 21.6567 20.6569 22.9998 19 22.9998H5C3.39484 22.9998 2.08414 21.7393 2.00391 20.1541L2 19.9998V12.9998C2.00008 11.343 3.3432 9.99983 5 9.99983H6V6.99983C5.99879 5.51241 6.54995 4.07739 7.54688 2.97347C8.54419 1.86923 9.91705 1.17476 11.3975 1.02522C12.8777 0.875822 14.3607 1.28155 15.5586 2.16389C16.7565 3.04631 17.5837 4.34259 17.8799 5.80061C17.9898 6.34185 17.6399 6.8704 17.0986 6.9803C16.5576 7.08994 16.0298 6.74012 15.9199 6.19905C15.7225 5.22693 15.1707 4.36257 14.3721 3.77425C13.5735 3.18607 12.5845 2.91578 11.5977 3.01546C10.6109 3.11523 9.69604 3.57822 9.03125 4.31429C8.36659 5.05037 7.99903 6.00709 8 6.99886V9.99983H19C20.6568 9.99983 21.9999 11.343 22 12.9998V19.9998Z" fill="#445769"/>
</svg>
