<svg width="24" height="24" viewBox="0 0 24 24" fill="none" xmlns="http://www.w3.org/2000/svg">
<path d="M16.1396 1C16.4048 1 16.6592 1.10554 16.8467 1.29297L22.707 7.15332C22.8945 7.34084 23 7.59522 23 7.86035V16.1396C23 16.4048 22.8945 16.6592 22.707 16.8467L16.8467 22.707C16.6592 22.8945 16.4048 23 16.1396 23H7.86035C7.59522 23 7.34084 22.8945 7.15332 22.707L1.29297 16.8467C1.10554 16.6592 1 16.4048 1 16.1396V7.86035L1.00488 7.76074C1.02769 7.53206 1.12908 7.31729 1.29297 7.15332L7.15332 1.29297L7.22656 1.22656C7.40448 1.08084 7.62835 1 7.86035 1H16.1396ZM3 8.27441V15.7256L8.27441 21H15.7256L21 15.7256V8.27441L15.7256 3H8.27441L3 8.27441ZM14.293 8.29297C14.6835 7.90244 15.3165 7.90244 15.707 8.29297C16.0976 8.68349 16.0976 9.31651 15.707 9.70703L13.4141 12L15.707 14.293C16.0976 14.6835 16.0976 15.3165 15.707 15.707C15.3165 16.0976 14.6835 16.0976 14.293 15.707L12 13.4141L9.70703 15.707C9.31651 16.0976 8.68349 16.0976 8.29297 15.707C7.90244 15.3165 7.90244 14.6835 8.29297 14.293L10.5859 12L8.29297 9.70703C7.90244 9.31651 7.90244 8.68349 8.29297 8.29297C8.68349 7.90244 9.31651 7.90244 9.70703 8.29297L12 10.5859L14.293 8.29297Z" fill="#445769"/>
</svg>
